<?xml version="1.0" standalone="no"?>
<!DOCTYPE svg PUBLIC "-//W3C//DTD SVG 20010904//EN"
 "http://www.w3.org/TR/2001/REC-SVG-20010904/DTD/svg10.dtd">
<svg version="1.0" xmlns="http://www.w3.org/2000/svg"
 width="512.000000pt" height="512.000000pt" viewBox="0 0 512.000000 512.000000"
 preserveAspectRatio="xMidYMid meet">

<g transform="translate(0.000000,512.000000) scale(0.100000,-0.100000)"
fill="#000000" stroke="none">
<path d="M2384 5110 c-950 -64 -1797 -665 -2172 -1540 -210 -489 -262 -1048
-146 -1570 214 -958 977 -1721 1934 -1934 361 -80 760 -80 1117 0 965 215
1722 972 1937 1937 80 357 80 757 0 1117 -150 673 -575 1264 -1170 1625 -352
215 -739 336 -1164 365 -158 11 -173 11 -336 0z m-721 -1071 c124 -64 375
-378 454 -569 38 -93 40 -90 -123 -240 -80 -73 -152 -146 -160 -161 -21 -41
-17 -129 8 -196 128 -345 686 -903 1031 -1031 67 -25 155 -29 196 -8 15 8 88
81 162 161 l134 147 40 -6 c100 -12 343 -168 505 -323 109 -104 153 -172 148
-230 -3 -35 -18 -51 -223 -235 -235 -211 -300 -255 -412 -278 -81 -17 -259 -7
-358 20 -252 69 -556 238 -860 480 -165 132 -501 467 -633 632 -331 416 -512
800 -512 1088 0 172 40 269 168 410 42 47 132 148 200 223 113 126 126 137
158 137 19 0 54 -10 77 -21z m1857 -189 l0 -210 210 0 210 0 0 -245 0 -245
-210 0 -210 0 -2 -212 -3 -213 -245 0 -245 0 -3 213 -2 212 -210 0 -210 0 0
245 0 245 210 0 210 0 0 210 0 210 250 0 250 0 0 -210z"/>
</g>
</svg>
