<svg width="37" height="39" viewBox="0 0 37 39" fill="none" xmlns="http://www.w3.org/2000/svg">
<path d="M30.2167 34.125L20.5042 23.8875C19.7333 24.5375 18.8469 25.0521 17.8448 25.4312C16.8427 25.8104 15.7764 26 14.6458 26C11.8451 26 9.47483 24.9776 7.5349 22.9328C5.59497 20.888 4.625 18.3896 4.625 15.4375C4.625 12.4854 5.59497 9.98698 7.5349 7.94219C9.47483 5.8974 11.8451 4.875 14.6458 4.875C17.4465 4.875 19.8168 5.8974 21.7568 7.94219C23.6967 9.98698 24.6667 12.4854 24.6667 15.4375C24.6667 16.6292 24.4868 17.7531 24.1271 18.8094C23.7674 19.8656 23.2792 20.8 22.6625 21.6125L32.375 31.85L30.2167 34.125ZM14.6458 22.75C16.5729 22.75 18.2109 22.0391 19.5599 20.6172C20.9089 19.1953 21.5833 17.4688 21.5833 15.4375C21.5833 13.4062 20.9089 11.6797 19.5599 10.2578C18.2109 8.83594 16.5729 8.125 14.6458 8.125C12.7188 8.125 11.0807 8.83594 9.73177 10.2578C8.38281 11.6797 7.70833 13.4062 7.70833 15.4375C7.70833 17.4688 8.38281 19.1953 9.73177 20.6172C11.0807 22.0391 12.7188 22.75 14.6458 22.75Z" fill="white"/>
</svg>
